<?xml version="1.0" encoding="UTF-8" standalone="no"?>
<!-- Created with Inkscape (http://www.inkscape.org/) -->

<svg
   width="662.32501mm"
   height="272.72919mm"
   viewBox="0 0 662.32501 272.72919"
   version="1.1"
   id="svg5"
   inkscape:version="1.1 (c4e8f9ed74, 2021-05-24)"
   sodipodi:docname="logo.svg"
   xmlns:inkscape="http://www.inkscape.org/namespaces/inkscape"
   xmlns:sodipodi="http://sodipodi.sourceforge.net/DTD/sodipodi-0.dtd"
   xmlns="http://www.w3.org/2000/svg"
   xmlns:svg="http://www.w3.org/2000/svg">
  <sodipodi:namedview
     id="namedview7"
     pagecolor="#ffffff"
     bordercolor="#666666"
     borderopacity="1.0"
     inkscape:pageshadow="2"
     inkscape:pageopacity="0.0"
     inkscape:pagecheckerboard="0"
     inkscape:document-units="mm"
     showgrid="false"
     inkscape:zoom="0.35355339"
     inkscape:cx="1743.7253"
     inkscape:cy="844.28549"
     inkscape:window-width="1920"
     inkscape:window-height="1011"
     inkscape:window-x="0"
     inkscape:window-y="0"
     inkscape:window-maximized="1"
     inkscape:current-layer="layer1" />
  <defs
     id="defs2" />
  <g
     inkscape:label="Ebene 1"
     inkscape:groupmode="layer"
     id="layer1"
     transform="translate(224.68092,-12.748816)">
    <path
       style="fill:#000000;stroke-width:0.3175"
       d="m 189.739,271.60753 c -1.91134,-1.06479 -2.27298,-3.05916 -0.8448,-4.65884 0.4958,-0.55533 1.01,-1.00968 1.14265,-1.00968 0.13265,0 0.69139,-0.19769 1.24168,-0.43931 0.55026,-0.24161 1.64341,-0.72304 2.42922,-1.06983 0.78582,-0.34679 1.78594,-0.73196 2.2225,-0.85594 0.43656,-0.12397 1.22238,-0.41328 1.74625,-0.64291 2.2829,-1.00062 3.85455,-1.67901 4.445,-1.91863 0.43234,-0.17545 -0.78365,-0.43656 -3.81,-0.81811 -11.60647,-1.46327 -18.62449,-3.86048 -22.45356,-7.66965 -1.00937,-1.00409 -1.83519,-1.95829 -1.83519,-2.12044 0,-0.16215 -0.18044,-0.48362 -0.401,-0.71438 -1.08226,-1.13237 -4.99649,-8.29048 -4.99649,-9.1373 0,-0.18679 -0.13837,-0.58771 -0.30751,-0.89094 -1.13579,-2.03641 -2.737,-10.01278 -3.58426,-17.85506 -0.52406,-4.8505 -0.52358,-20.23255 0,-22.49308 0.81103,-3.4971 4.31273,-9.48103 7.46075,-12.74941 1.52873,-1.58718 3.64839,-3.33956 5.13692,-4.24683 0.53747,-0.32757 1.04861,-0.69653 1.13593,-0.81991 0.20358,-0.28768 4.08965,-2.55283 4.38264,-2.55459 0.1216,-6.3e-4 0.92234,-0.35709 1.7794,-0.79191 0.85709,-0.43482 2.64303,-1.18431 3.96875,-1.66554 2.29701,-0.83379 2.6656,-0.87336 7.83164,-0.84081 6.46001,0.0407 9.90686,0.62443 13.43015,2.27439 1.32671,0.62131 2.5702,1.28475 2.7633,1.47431 0.19308,0.18955 0.83223,0.70183 1.42031,1.13839 0.58807,0.43656 1.61084,1.27471 2.27279,1.86257 0.66192,0.58785 1.2113,0.94503 1.22082,0.79374 0.33823,-5.37198 0.6389,-9.68794 0.81131,-11.64498 0.20351,-2.31026 -0.1076,-5.28395 -0.83671,-7.99758 -0.14078,-0.52387 -0.34483,-1.48283 -0.45352,-2.13101 -0.34677,-2.06819 0.21384,-2.0588 -25.73213,-0.4307 -9.98249,0.6264 -12.42391,0.97783 -14.05649,2.02329 -0.89887,0.57562 -7.48758,7.23861 -8.22442,8.31717 -0.29826,0.43656 -0.62954,0.86518 -0.73622,0.9525 -0.10669,0.0873 -0.59785,0.69664 -1.09154,1.35405 -0.49368,0.65742 -1.39945,1.43346 -2.01282,1.72453 -1.05801,0.50204 -1.17386,0.49773 -2.25701,-0.0841 -0.62799,-0.3373 -1.33046,-1.00753 -1.56105,-1.4894 -0.52871,-1.10491 -1.4667,-27.46779 -1.01918,-28.64485 0.37754,-0.99304 1.2479,-1.43528 2.82467,-1.43528 1.31887,0 1.99673,0.47018 3.36906,2.33681 1.26523,1.72096 3.08397,2.44915 8.41375,3.36873 1.13506,0.19584 2.7852,0.50835 3.66696,0.69446 1.00022,0.21111 3.86626,0.27145 7.62,0.16042 5.69236,-0.16837 7.45157,-0.34309 11.57304,-1.14937 7.32821,-1.43364 7.21296,-1.4265 23.1775,-1.43454 21.63711,-0.0109 26.50807,0.61343 27.64018,3.54268 0.33595,0.86929 -0.0859,2.39609 -0.87452,3.16536 -0.89637,0.87434 -6.33044,4.92386 -8.50347,6.33685 -3.2099,2.0872 -4.13739,2.95609 -4.43923,4.15877 -0.11008,0.43857 -0.46231,1.38886 -0.78273,2.11174 -1.9225,4.33735 -2.15291,5.95536 -2.85448,20.04685 -0.1826,3.66712 -0.41339,7.38187 -0.51286,8.25499 -0.17088,1.49984 0.43269,7.43805 1.14563,11.27125 0.17863,0.96044 0.52413,2.88925 0.76775,4.28625 0.24362,1.397 0.59474,3.18294 0.78026,3.96875 0.52314,2.21604 0.91852,4.38724 1.27197,6.985 0.17817,1.30969 0.46386,3.30994 0.63483,4.445 0.17095,1.13506 0.46977,3.20675 0.66408,4.60375 0.34465,2.47814 1.0261,5.39089 1.55986,6.6675 0.14601,0.34925 0.50402,1.2065 0.79559,1.905 1.29352,3.09903 2.25072,4.2305 5.1493,6.08671 0.49175,0.3149 1.04909,0.71728 1.23854,0.89417 0.86592,0.80849 7.72491,5.56173 8.60295,5.96179 0.40497,0.18453 0.73635,0.45545 0.73635,0.60204 0,0.1466 0.21431,0.26654 0.47624,0.26654 0.26194,0 0.47626,0.14287 0.47626,0.3175 0,0.17463 0.2132,0.3175 0.47376,0.3175 0.26058,0 1.61789,1.10783 3.01626,2.46185 2.40459,2.3283 2.54248,2.53609 2.54248,3.83085 0,3.33958 -0.66104,3.54979 -11.16258,3.54979 -4.57898,0 -9.11987,0.1407 -10.09081,0.31266 -2.26657,0.40143 -7.4857,1.22253 -10.33786,1.6264 -1.22238,0.17309 -3.22263,0.60356 -4.445,0.95659 -2.48994,0.71912 -3.22844,0.90837 -7.30251,1.87138 -3.10965,0.73505 -4.02529,0.95777 -7.14375,1.73763 -3.35591,0.83924 -8.03265,1.34642 -14.2875,1.54946 -4.05936,0.13176 -6.06989,0.0814 -6.50874,-0.1631 z m 23.92452,-28.10375 2.65204,-0.20642 -0.23086,-1.2998 c -0.12696,-0.71489 -0.34245,-1.8713 -0.47888,-2.5698 -0.13643,-0.6985 -0.48682,-2.55587 -0.77869,-4.1275 -0.29186,-1.57162 -0.6714,-3.57187 -0.84339,-4.445 -0.3429,-1.74074 -0.65401,-3.98034 -1.38928,-10.00125 -0.53143,-4.35186 -0.88544,-6.78107 -1.41122,-9.68375 -0.1898,-1.04774 -0.55909,-3.47661 -0.82065,-5.39749 -0.93275,-6.84963 -1.13481,-7.43525 -3.42172,-9.91625 -3.10566,-3.36926 -7.94252,-5.89854 -12.12437,-6.34009 -1.64129,-0.1733 -1.65326,-0.16883 -4.66618,1.74498 -1.41148,0.89656 -4.68433,5.65648 -5.64356,8.20776 -1.40312,3.73198 -1.96965,8.39664 -1.74882,14.39984 0.31937,8.68344 0.78165,13.58079 1.4232,15.07745 1.05438,2.45978 4.80517,7.18759 9.20549,11.60343 1.998,2.00501 2.95046,2.66049 4.28987,2.95217 1.03137,0.22461 13.10684,0.2259 15.98702,0.002 z m 124.26861,-1.54242 c -1.51187,-1.22102 -1.45161,-2.90445 0.19399,-5.42125 1.54219,-2.35864 2.08277,-2.93176 3.83725,-4.06826 0.77653,-0.50301 1.56234,-1.04325 1.74624,-1.20054 0.8783,-0.75115 7.68195,-5.01354 8.00732,-5.01647 0.20371,-0.002 0.41802,-0.11048 0.47625,-0.24145 0.0582,-0.13097 0.74876,-0.54969 1.53457,-0.9305 2.92475,-1.41734 6.21599,-2.88561 6.985,-3.11614 0.43656,-0.13088 0.93663,-0.34118 1.11125,-0.46733 0.61754,-0.44613 3.22266,-0.97275 7.12219,-1.43973 3.69653,-0.44267 4.08947,-0.55847 6.1877,-1.82356 2.20348,-1.32855 5.69001,-4.02983 6.43973,-4.98933 0.61842,-0.79149 0.80723,-2.91247 0.52073,-5.85005 l -0.26785,-2.74653 -0.79375,0.73003 c -0.43656,0.40152 -1.36524,1.15333 -2.06375,1.67071 -0.6985,0.51739 -1.3415,1.0351 -1.42884,1.15048 -0.21682,0.28633 -13.61304,6.78744 -14.6049,7.08767 -0.43657,0.13215 -1.29382,0.49084 -1.90501,0.79707 -0.61119,0.30624 -1.46844,0.70876 -1.905,0.89448 -0.43656,0.18572 -2.00819,0.89858 -3.49249,1.58415 -1.48432,0.68556 -3.27025,1.43945 -3.96875,1.67531 -0.69851,0.23586 -1.41603,0.53236 -1.59446,0.65889 -0.17847,0.12653 -1.28093,0.40629 -2.44995,0.6217 -2.54826,0.46953 -4.85382,0.089 -7.50914,-1.23944 -1.99491,-0.99804 -4.39467,-3.28141 -5.28481,-5.02852 -0.34329,-0.67374 -0.7313,-1.2726 -0.86228,-1.33082 -0.13096,-0.0582 -0.23812,-0.21536 -0.23812,-0.34923 0,-0.13387 -0.73685,-1.58643 -1.63748,-3.22792 -0.90058,-1.64148 -2.239,-4.12751 -2.97427,-5.52451 -1.94297,-3.69168 -3.65563,-6.82566 -4.42439,-8.09626 -1.15427,-1.90773 -4.52431,-9.34405 -5.39575,-11.90624 -0.29697,-0.87313 -0.66618,-1.87325 -0.82052,-2.22251 -0.15431,-0.34924 -0.52016,-1.42081 -0.81299,-2.38124 -0.29284,-0.96044 -0.93282,-2.96069 -1.42215,-4.445 -0.8923,-2.70666 -1.13005,-3.74736 -2.06705,-9.04875 -0.51153,-2.89407 -0.4733,-5.26354 0.17929,-11.1125 0.15587,-1.397 0.43911,-3.96875 0.62941,-5.715 0.19031,-1.74625 0.71905,-4.81806 1.17491,-6.82625 0.4559,-2.00819 1.01534,-4.5085 1.24317,-5.55625 1.06956,-4.91846 2.44586,-8.89053 3.62782,-10.47006 1.21013,-1.61716 4.98091,-5.15346 7.46126,-6.99725 0.69849,-0.51925 1.34143,-1.03347 1.42875,-1.14274 0.6476,-0.81045 6.0799,-4.0476 10.16,-6.05443 4.56221,-2.24397 5.14492,-2.44736 7.98712,-2.78787 3.37804,-0.40471 7.45483,-0.0477 9.06885,0.79421 0.48552,0.25326 0.97142,0.46136 1.07975,0.46244 0.10837,9e-4 1.79486,0.93064 3.74777,2.0657 1.95294,1.13506 3.63538,2.06375 3.73879,2.06375 0.24955,0 -0.1833,-14.21893 -0.55573,-18.256248 -0.1611,-1.746252 -0.43084,-3.817935 -0.59947,-4.603752 -0.16862,-0.785808 -0.46793,-2.286 -0.66513,-3.333753 -0.19719,-1.047744 -0.49761,-2.476494 -0.66763,-3.174993 -0.36605,-1.50381 -1.01411,-26.065647 -0.76654,-29.051253 0.34931,-4.212333 0.29324,-13.285872 -0.0849,-13.741515 -0.20146,-0.242739 -0.97555,-0.633501 -1.72022,-0.868356 -0.74466,-0.234855 -1.49679,-0.524448 -1.67141,-0.643536 -0.17462,-0.119088 -0.71565,-0.311706 -1.20224,-0.428031 -0.48664,-0.116316 -1.81179,-0.636084 -2.94485,-1.155024 -1.13303,-0.518949 -2.18917,-0.943533 -2.34693,-0.943533 -0.15779,0 -0.47567,-0.178596 -0.70643,-0.396873 -0.78128,-0.739062 -2.99142,-2.143125 -3.37351,-2.143125 -0.20888,0 -0.37979,-0.142875 -0.37979,-0.317502 0,-0.174627 -0.32147,-0.320634 -0.71438,-0.324477 -1.08271,-0.01062 -3.31784,-1.126719 -3.705,-1.850166 -0.18872,-0.352611 -0.34312,-1.198395 -0.34312,-1.879506 0,-1.793142 1.20764,-2.782854 4.92125,-4.033179 0.87313,-0.293976 1.87325,-0.653022 2.2225,-0.797895 2.38871,-0.990837 4.02705,-1.116027 14.605,-1.116027 8.3346,0 11.15682,0.102159 12.3825,0.448245 2.31915,0.65484 5.79996,2.544759 7.15159,3.882942 1.92415,1.905003 1.9138,3.46437 -0.0386,5.827095 -2.03537,2.463093 -2.26708,3.119355 -4.89623,13.868433 -1.32509,5.417559 -1.95108,10.320633 -2.68853,21.058281 -0.16793,2.444751 -0.38665,5.159376 -0.4861,6.032502 -0.17081,1.499706 0.49515,9.690777 1.09707,13.493745 0.63713,4.025565 1.48812,8.217324 2.2238,10.953751 1.06162,3.94889 2.30479,10.78368 3.03187,16.66876 0.5782,4.6802 1.34376,11.11808 1.75562,14.76374 0.17754,1.57162 0.46596,5.42925 0.64093,8.5725 0.4668,8.38541 1.55473,18.46246 2.84505,26.3525 0.14279,0.87312 0.48356,3.01625 0.75725,4.7625 0.27368,1.74625 0.64386,3.9251 0.82261,4.84187 0.81632,4.18732 0.99558,5.18784 1.43621,8.01688 0.25838,1.65893 0.62061,3.80206 0.80496,4.7625 0.41379,2.15608 0.83019,4.64828 1.4323,8.5725 0.49673,3.23762 0.85763,5.39103 1.41005,8.41375 0.19148,1.04774 0.48856,2.76224 0.66018,3.81 0.17161,1.04775 0.43142,2.26218 0.57734,2.69875 0.14592,0.43656 0.41205,1.29381 0.59141,1.90499 1.2185,4.1526 1.53581,5.07488 1.74688,5.07729 0.13097,0.002 0.23813,0.15501 0.23813,0.34116 0,0.18615 1.35731,3.04898 3.01625,6.36187 2.09213,4.17796 3.01625,6.36465 3.01625,7.13722 0,2.55704 -2.97695,3.56127 -5.3393,1.80114 -0.6432,-0.47922 -1.24089,-0.95793 -1.32821,-1.06379 -0.47241,-0.57274 -3.00935,-1.90724 -4.49008,-2.3619 -0.93564,-0.28729 -1.98691,-0.63614 -2.33616,-0.77523 -0.34926,-0.13908 -1.27794,-0.4287 -2.06376,-0.64361 -0.78581,-0.2149 -1.84298,-0.51694 -2.34924,-0.67119 -3.12423,-0.95189 -10.29586,0.55496 -15.5895,3.27558 -0.6985,0.35899 -2.09986,1.08374 -3.11414,1.61057 -1.01425,0.52682 -2.58588,1.14259 -3.4925,1.36837 -0.90659,0.22578 -2.79136,0.71445 -4.18836,1.08594 -1.39701,0.37149 -3.68301,0.94109 -5.08,1.26578 -1.397,0.32469 -3.39725,0.82204 -4.44501,1.1052 -1.04774,0.28317 -3.47661,0.73044 -5.39749,0.99395 -6.45789,0.88588 -6.2359,0.88703 -7.38188,-0.0385 z m 30.83052,-43.52012 c 1.02225,-0.24805 2.25873,-0.7359 2.74777,-1.08411 0.48902,-0.34821 1.04566,-0.63312 1.23698,-0.63312 0.19133,0 0.34786,-0.13324 0.34786,-0.2961 0,-0.16285 0.26057,-0.37881 0.57902,-0.47988 0.31848,-0.10108 0.85426,-0.43606 1.19062,-0.7444 0.33639,-0.30834 1.07595,-0.88794 1.64348,-1.28799 0.56753,-0.40005 1.03187,-0.85627 1.03187,-1.01384 0,-0.15755 -0.3349,-1.04079 -0.74418,-1.96274 -1.21435,-2.73524 -1.7602,-4.52435 -2.4003,-7.86754 -2.61782,-13.67203 -3.38709,-18.06631 -3.83518,-21.9075 -0.19352,-1.65894 -0.41907,-3.51631 -0.50124,-4.1275 -0.0822,-0.61119 -0.37274,-3.32581 -0.6457,-6.0325 -0.27296,-2.70668 -0.61744,-6.06425 -0.76555,-7.46125 -0.14809,-1.397 -0.35687,-3.61156 -0.464,-4.92124 -0.23701,-2.89842 -1.02855,-6.65373 -1.53956,-7.30446 -0.41894,-0.53345 -1.96732,-1.81038 -3.07762,-2.53804 -0.39967,-0.26195 -1.31251,-0.90488 -2.02854,-1.42875 -2.37303,-1.7362 -7.26192,-3.86702 -10.57027,-4.60701 -1.69808,-0.37983 -1.90278,-0.34696 -5.3366,0.85704 -2.06137,0.72278 -4.20059,3.38208 -5.57061,6.92496 -1.77225,4.58299 -2.59318,11.68476 -1.90846,16.51 0.19825,1.397 0.56347,4.04019 0.81156,5.87375 1.18676,8.76964 1.57652,10.29327 3.62922,14.18752 0.53524,1.01543 0.97349,1.9471 0.97387,2.07038 0,0.12328 0.42929,0.9511 0.95317,1.8396 0.52387,0.88849 0.95249,1.76119 0.95249,1.93931 0,0.17813 0.36707,1.12633 0.81566,2.10709 1.06467,2.32761 2.06362,5.44844 3.1256,9.76485 1.29229,5.25249 1.49269,5.98354 1.8047,6.58381 0.1576,0.30323 0.28655,0.90201 0.28655,1.33064 0,0.42863 0.14287,0.86762 0.31749,0.97555 0.17463,0.10792 0.3175,0.46776 0.3175,0.79963 0,0.33189 0.38332,0.95886 0.85185,1.39329 1.15431,1.07034 5.08194,2.98331 6.45065,3.14184 1.91634,0.22194 7.37994,-0.13055 9.3199,-0.60129 z M 77.026505,235.12986 c -1.397007,-0.12697 -3.611565,-0.39515 -4.921254,-0.59596 -5.583915,-0.85621 -6.745599,-1.20932 -7.283196,-2.21382 -0.433431,-0.80987 -0.43191,-2.4401 0.0036,-3.25279 0.431037,-0.8054 3.830949,-2.96954 7.121421,-4.533 4.548069,-2.16098 5.068413,-2.38767 5.953122,-2.59349 0.480222,-0.11172 0.873126,-0.33051 0.873126,-0.48621 0,-0.15569 0.205884,-0.28308 0.457515,-0.28308 0.934839,0 0.821781,-0.71889 -0.562608,-3.57752 -0.780903,-1.61217 -2.593107,-5.3601 -4.027275,-8.32872 -1.434168,-2.96863 -3.788127,-7.82638 -5.231025,-10.795 -3.608874,-7.42494 -4.663719,-9.70304 -6.027561,-13.01751 -0.646695,-1.57162 -1.44882,-3.46315 -1.782504,-4.20341 -0.333675,-0.74025 -0.60669,-1.49228 -0.60669,-1.67118 0,-0.1789 -0.126072,-0.57336 -0.280152,-0.87658 -0.154089,-0.30323 -0.445338,-1.19426 -0.647235,-1.98007 -0.509895,-1.98469 -1.925116,-7.26368 -2.255596,-8.41375 -0.150543,-0.52388 -0.410436,-1.45256 -0.577539,-2.06375 -0.617679,-2.25916 -1.993293,-7.17326 -2.266398,-8.09625 -0.155007,-0.52388 -0.479943,-1.73831 -0.72207,-2.69875 -0.666972,-2.64558 -1.482012,-4.12594 -3.240963,-5.88658 -3.122883,-3.12587 -10.869444,-6.81342 -14.313204,-6.81342 -1.193877,0 -1.634013,-0.17082 -2.391264,-0.92808 -1.555119,-1.55511 -0.940869,-4.61394 1.208736,-6.01925 1.146933,-0.74981 1.202805,-0.7541 6.732981,-0.51748 3.067056,0.13123 9.576954,0.25716 14.466456,0.27984 5.81119,0.027 9.164896,0.16481 9.683746,0.39809 0.436563,0.19627 1.579563,0.61035 2.539998,0.92015 0.960444,0.30981 1.889127,0.6658 2.063754,0.79108 0.174627,0.12527 2.174877,0.32807 4.445001,0.45066 11.411847,0.61626 14.441652,0.80843 20.0025,1.26872 3.317877,0.27463 6.746873,0.63578 7.619993,0.80256 2.60976,0.49849 5.27307,0.97542 7.44624,1.33341 2.43348,0.40088 3.44582,0.99509 4.01463,2.35641 0.94002,2.24983 -0.89336,4.00565 -4.62102,4.42556 -3.40421,0.38348 -7.95872,2.17264 -7.94631,3.12157 0.003,0.20103 0.19355,0.86558 0.42427,1.47676 0.39533,1.04721 0.85904,2.08655 3.09091,6.92777 0.50876,1.10359 0.92503,2.07701 0.92503,2.16314 0,0.0861 0.4152,1.04057 0.92266,2.12097 1.81597,3.86629 3.20484,6.94494 3.20484,7.10406 0,0.19249 0.87853,2.24039 1.309,3.0513 0.16668,0.31405 1.01704,2.24286 1.88969,4.28625 0.87262,2.04339 2.60734,5.77689 3.85493,8.29668 1.74612,3.52666 2.32048,4.44035 2.49488,3.96874 0.34402,-0.93025 0.8636,-2.90935 1.41123,-5.37517 0.27145,-1.22237 0.62734,-2.72256 0.79083,-3.33374 0.16351,-0.61119 0.52825,-2.18281 0.81054,-3.4925 0.28225,-1.30969 0.87027,-3.81 1.30667,-5.55625 0.4364,-1.74625 0.92142,-3.7933 1.07785,-4.54898 0.15643,-0.75569 0.50971,-2.113 0.78508,-3.01625 0.54604,-1.79095 0.84779,-3.27793 1.57397,-7.75601 0.26214,-1.6163 0.5074,-3.04505 0.54506,-3.175 0.0376,-0.12994 -0.0935,-0.6876 -0.29153,-1.23922 -0.28937,-0.80616 -0.78578,-1.20034 -2.52971,-2.00879 -6.25107,-2.89782 -7.36187,-3.55128 -7.87495,-4.63251 -0.62682,-1.3209 -0.36192,-2.57083 0.75539,-3.56464 l 0.82232,-0.73139 10.95375,0.17517 c 16.40583,0.26237 21.65773,0.47038 22.49021,0.89076 1.64227,0.82928 2.07125,3.58941 0.74448,4.79012 -0.52848,0.47827 -6.33619,3.45347 -9.60965,4.92289 -0.80089,0.35951 -1.62681,0.85926 -1.83537,1.11054 -0.20853,0.25127 -0.58992,1.72282 -0.84753,3.27009 -0.25759,1.54727 -0.62116,3.38472 -0.80795,4.08322 -0.34083,1.27473 -0.42555,1.66221 -1.38827,6.35 -0.28689,1.397 -0.6576,3.14722 -0.82379,3.88938 -0.46055,2.0569 -0.82603,3.80022 -1.38114,6.58812 -0.96359,4.83944 -1.1545,5.72779 -1.80801,8.41374 -0.36113,1.48432 -0.77604,2.9845 -0.92205,3.33376 -0.14599,0.34925 -0.33709,0.92075 -0.42469,1.27 -0.23244,0.92682 -2.73269,8.14469 -3.07944,8.89 -0.16249,0.34924 -0.42859,1.20649 -0.59131,1.905 -0.16272,0.6985 -0.51136,2.05581 -0.77476,3.01624 -0.44263,1.61406 -0.43434,1.87845 0.1097,3.49251 1.7953,5.32653 5.28704,10.4617 8.88708,13.06992 1.17109,0.84847 4.13226,2.48757 4.49396,2.48757 0.542,0 4.75887,2.66647 5.03612,3.1845 0.17183,0.32107 0.31242,1.15738 0.31242,1.85847 0,1.06637 -0.16866,1.40229 -1.03188,2.05522 l -1.03188,0.78051 -17.92385,0.0356 c -10.15455,0.0202 -17.99996,0.15875 -18.0994,0.31965 -0.0966,0.15621 -1.24626,0.44494 -2.5549,0.64162 -3.9283,0.5904 -6.40195,0.97286 -8.411848,1.30062 -5.458032,0.89002 -15.678054,1.17325 -21.907494,0.60712 z m 31.424625,-11.18023 c -0.11515,-0.3929 -0.61252,-1.57162 -1.10522,-2.61936 -0.49269,-1.04776 -1.41322,-3.04801 -2.04562,-4.44501 -0.6324,-1.39699 -1.37773,-2.96862 -1.6563,-3.49249 -0.57474,-1.08078 -5.263716,-10.13373 -6.249081,-12.065 -0.81315,-1.59373 -0.988974,-1.03218 -0.742635,2.37179 0.532773,7.36204 1.648188,9.92193 6.448946,14.80039 0.89497,0.90945 2.43694,2.66841 3.42666,3.9088 0.98967,1.24039 1.87439,2.25526 1.96605,2.25526 0.0916,0 0.0724,-0.32147 -0.0428,-0.71438 z M 86.609066,178.38159 c 0.139464,-2.73969 0.07938,-4.29468 -0.20241,-5.23875 -0.511479,-1.71354 -2.409543,-6.57475 -3.387825,-8.67672 -0.414468,-0.89053 -0.752814,-1.74778 -0.751869,-1.905 9e-4,-0.15721 -0.410157,-1.35742 -0.913545,-2.6671 -0.503379,-1.30968 -1.306836,-3.45281 -1.785456,-4.7625 -1.679634,-4.59615 -3.033576,-6.985 -3.95892,-6.985 -0.114975,0 -0.48969,-0.26146 -0.832698,-0.58101 -0.342999,-0.31955 -1.048545,-0.85534 -1.567863,-1.19063 -0.91665,-0.5918 -1.395936,-0.95876 -2.766042,-2.11773 -0.710307,-0.60084 -1.375461,-0.71622 -1.642077,-0.28483 -0.291888,0.47229 0.442566,4.24971 1.274598,6.55545 0.879903,2.43839 2.29266,6.86886 3.138507,9.8425 0.744921,2.61879 1.781514,5.64976 2.063115,6.0325 0.128493,0.17463 0.332109,0.74613 0.452502,1.27 0.120384,0.52387 0.711585,1.75985 1.313775,2.74661 0.60219,0.98675 1.094895,1.95116 1.094895,2.14312 0,0.19196 0.142875,0.34902 0.317502,0.34902 0.174618,0 0.317493,0.11843 0.317493,0.26317 0,0.30879 3.793581,6.71963 4.275387,7.22504 0.180603,0.18945 0.614115,0.73986 0.963369,1.22311 0.349245,0.48327 0.91377,1.24458 1.254501,1.69183 l 0.619506,0.81317 0.262611,-0.92504 c 0.144441,-0.50877 0.351864,-2.67831 0.460944,-4.82121 z m 173.704344,55.43335 c -0.99152,-0.84688 -1.58626,-2.22367 -1.31162,-3.03629 0.19853,-0.58743 4.77272,-7.57772 5.39308,-8.24171 0.6993,-0.74851 2.9599,-5.1298 3.26904,-6.33579 0.17215,-0.67149 0.87792,-3.364 1.5684,-5.98338 1.88636,-7.15598 2.10727,-9.17959 1.66204,-15.22489 -0.48698,-6.61187 -1.05544,-10.3404 -2.56788,-16.84261 -0.60633,-2.60673 -1.37128,-6.08363 -1.95586,-8.89 -0.18186,-0.87313 -0.45716,-2.08756 -0.61176,-2.69875 -0.26771,-1.0584 -0.55759,-2.80705 -1.28949,-7.77875 -0.64408,-4.37506 -0.91917,-6.40517 -1.37656,-10.16 -0.25526,-2.0955 -0.61832,-4.953 -0.80677,-6.35 -0.70417,-5.22042 -0.92693,-7.43308 -1.24666,-12.3825 -0.86007,-13.31424 -1.0092,-15.49611 -1.30223,-19.05 -0.40144,-4.86847 -0.39671,-12.501749 0.0112,-17.779997 0.86945,-11.255796 0.90958,-12.76731 0.56329,-21.224385 l -0.35297,-8.620614 -1.06572,-1.685304 c -1.28492,-2.032011 -2.70808,-3.495105 -4.57728,-4.705776 -1.94747,-1.261386 -2.82209,-2.331387 -2.82114,-3.451419 0,-1.429254 1.02673,-2.888541 2.19402,-3.122001 1.17469,-0.234936 26.67906,0.334602 28.27017,0.631296 1.7004,0.317079 2.64081,1.378179 2.64081,2.979747 0,1.242675 -0.15123,1.483641 -2.01188,3.20544 -1.10655,1.023975 -2.13042,1.861767 -2.2753,1.861767 -0.14487,0 -0.95922,0.678654 -1.80965,1.508121 -1.75828,1.714941 -1.63938,1.176867 -2.22755,10.08063 -0.58073,8.791119 -0.27397,35.678315 0.62215,54.530625 1.40611,29.58198 1.60032,32.62013 2.51154,39.29062 0.17892,1.30969 0.53763,3.95288 0.79715,5.87375 0.51689,3.82576 0.92018,6.52045 1.44933,9.68375 0.18986,1.13506 0.54988,3.4925 0.80007,5.23875 0.80898,5.64725 1.99606,11.4644 2.65639,13.01749 1.09719,2.58071 2.27162,4.50978 3.26708,5.36638 2.17252,1.86952 10.11939,3.36487 17.88211,3.36487 5.4662,0 7.50502,-0.46562 10.5401,-2.40713 3.14732,-2.01331 5.81187,-1.19587 5.81187,1.78298 0,0.99961 -0.37395,1.86543 -1.72634,3.99704 -2.6176,4.1258 -6.69922,8.68725 -8.75115,9.77991 -2.99073,1.59256 -4.01368,2.08471 -4.33563,2.08587 -0.20177,6.4e-4 -0.98758,0.30737 -1.74625,0.68142 -1.81226,0.89351 -2.14531,1.01593 -5.50688,2.02431 -1.57162,0.47145 -3.21468,0.97558 -3.65124,1.12029 -0.43656,0.14471 -1.29381,0.35241 -1.905,0.46156 -0.61119,0.10915 -1.46844,0.31583 -1.90501,0.45928 -0.43656,0.14345 -1.36524,0.41851 -2.06374,0.61123 -0.6985,0.19272 -2.05582,0.57502 -3.01625,0.84955 -0.96044,0.27454 -2.31776,0.65022 -3.01625,0.83485 -0.6985,0.18464 -1.98438,0.59561 -2.8575,0.91328 -0.87313,0.31766 -2.08287,0.67628 -2.68834,0.79694 -0.60544,0.12065 -1.31981,0.32741 -1.5875,0.45945 -2.389,1.17855 -4.58394,1.70484 -10.64667,2.55284 -5.16848,0.72292 -5.97395,0.71443 -6.89559,-0.0727 z M -7.8372564,225.77056 c -1.489266,-0.64334 -2.150748,-2.28781 -1.523817,-3.78826 0.251451,-0.60182 0.939195,-1.56623 1.528308,-2.14313 1.506123,-1.47489 2.966814,-3.69643 3.407571,-5.18252 2.060415,-6.94707 1.970487,-6.04083 2.25189,-22.69513 0.143109,-8.46932 0.412389,-19.32782 0.598419,-24.13 0.18603,-4.80218 0.559764,-16.87513 0.83052,-26.82875 0.556713,-20.46548 0.643095,-21.66257 2.16522,-30.00375 0.2708645,-1.48431 0.6298655,-3.48455 0.7977875,-4.445 0.167922,-0.96043 0.51885,-2.81781 0.779841,-4.1275 0.261,-1.30969 0.565182,-3.59569 0.675963,-5.079997 0.219789,-2.944782 0.613035,-5.470155 1.80459,-11.588751 0.289773,-1.488006 0.934533,-3.626874 1.531332,-5.079996 0.143442,-0.349254 0.440658,-1.135071 0.660483,-1.746252 0.371844,-1.033866 1.037448,-2.623545 2.060541,-4.921254 0.2332619,-0.523872 1.0136249,-2.381247 1.7341379,-4.127499 1.291365,-3.129768 1.473885,-3.57624 2.180196,-5.333058 0.196362,-0.488439 0.35703,-1.300671 0.35703,-1.804959 0,-0.504288 0.139581,-1.28403 0.310194,-1.732761 0.170604,-0.448722 0.40491,-1.951623 0.520677,-3.339765 0.193437,-2.319507 0.142065,-2.66373 -0.634302,-4.250583 -0.464634,-0.94968 -1.600029,-2.460726 -2.523096,-3.357891 -2.3038829,-2.239227 -3.7785599,-2.886597 -9.1034729,-3.996324 -4.9009595,-1.021383 -5.5417415,-1.216458 -6.2974265,-1.917162 -0.582984,-0.540576 -0.774171,-1.046133 -0.774171,-2.047158 0,-1.884267 0.999261,-2.806101 3.443769,-3.176928 1.815138,-0.275346 3.9368705,-0.648495 7.2790745,-1.280178 3.506049,-0.662643 7.5220559,-0.923193 19.2087539,-1.246221 6.723063,-0.185832 13.581063,-0.473922 15.239997,-0.640206 1.658943,-0.166284 4.620708,-0.397197 6.581718,-0.513126 l 3.565476,-0.210798 0.958905,1.026513 c 1.518354,1.6254 1.200312,3.398778 -0.999522,5.573385 -0.581805,0.575127 -2.772324,2.788047 -4.86783,4.9176 -2.095497,2.129544 -4.024305,4.035825 -4.28625,4.236165 -0.823761,0.630045 -4.339368,4.642065 -5.880366,6.710697 -0.520236,0.698364 -1.195911,1.54683 -1.501506,1.8855 -0.305595,0.338661 -0.555624,0.71082 -0.555624,0.827019 0,0.116199 -0.321471,0.570825 -0.714375,1.010286 -1.226034,1.371312 -1.762857,2.075274 -2.166039,2.840463 -0.214308,0.406719 -0.480105,0.810927 -0.590661,0.898245 -0.189522,0.14967 -1.562364,2.376549 -2.544552,4.127499 -1.281717,2.284902 -3.820698,7.78167 -4.766274,10.318743 -0.390501,1.047753 -0.825921,2.190753 -0.96759,2.540007 -0.320076,0.789021 -2.774331,8.751888 -3.229308,10.477494 -0.184167,0.698499 -0.452817,1.627191 -0.597006,2.063754 -0.144189,0.436563 -0.559566,2.020275 -0.923067,3.519369 -0.363501,1.499085 -0.946224,3.713648 -1.294929,4.921248 -0.348714,1.2076 -0.840762,3.12432 -1.093455,4.25939 -0.252693,1.13506 -0.809775,3.56716 -1.237959,5.40467 -0.428184,1.83751 -0.93681,4.62358 -1.130283,6.19125 -0.193482,1.56767 -0.491958,3.70758 -0.663291,4.75532 -2.0515589,12.54571 -2.0529269,12.57161 -2.0469419,38.57625 0.0054,23.16172 0.2412359,30.42698 1.0876229,33.49625 0.144468,0.52388 0.444771,1.77403 0.66735,2.77812 0.22257,1.0041 0.455229,1.82563 0.517023,1.82563 0.06183,0 0.360441,-0.1282 0.663669,-0.28489 0.499158,-0.25793 1.738467,-0.64536 6.583815,-2.05819 0.873126,-0.25458 2.373318,-0.63129 3.333753,-0.83712 0.960435,-0.20582 2.317752,-0.50084 3.016251,-0.65559 1.627092,-0.3605 6.495039,-1.10882 10.160001,-1.56185 1.571625,-0.19426 3.631419,-0.48801 4.577328,-0.65278 0.9459,-0.16478 4.446342,-0.2964 7.778745,-0.29252 6.699249,0.008 6.985449,0.0852 7.779537,2.10346 0.329022,0.83624 0.310302,1.15951 -0.114705,1.98139 -0.630666,1.21957 -1.385757,1.71379 -3.900069,2.55265 -1.087164,0.36272 -2.75679,1.01632 -3.710286,1.45246 -0.953487,0.43613 -1.858806,0.79298 -2.011824,0.79298 -0.153018,0 -0.869643,0.28575 -1.592505,0.635 -0.722862,0.34924 -1.466019,0.63499 -1.651446,0.63499 -0.185427,0 -0.585234,0.13152 -0.888462,0.29226 -0.303228,0.16073 -1.551438,0.67977 -2.773818,1.15341 -1.998297,0.7743 -3.091995,1.21243 -5.079996,2.03504 -0.349254,0.14451 -1.435059,0.63491 -2.4129,1.08977 -0.977841,0.45486 -1.86723,0.82702 -1.976427,0.82702 -0.109188,0 -1.134369,0.42863 -2.278179,0.95251 -1.14381,0.52387 -2.168982,0.9525 -2.278179,0.9525 -0.109188,0 -0.927144,0.34504 -1.817676,0.76675 -0.890523,0.42171 -2.762145,1.29576 -4.159143,1.94233 -3.697956,1.71151 -8.045532,3.77098 -12.3824969,5.86566 -9.0175955,4.35532 -12.4217015,5.95902 -13.0175015,6.13264 -0.349254,0.10177 -1.104687,-0.0179 -1.678761,-0.26584 z M -190.33722,221.25893 c -0.36505,-0.31002 -0.84066,-1.01334 -1.05689,-1.56294 -0.45537,-1.15735 -0.012,-2.30602 1.48778,-3.85435 1.55118,-1.6014 4.13128,-4.7117 5.58701,-6.73512 3.67928,-5.11406 7.45091,-12.45607 8.96503,-17.45168 0.42283,-1.39507 1.04845,-4.94703 1.73551,-9.85332 0.1834,-1.30969 0.39569,-2.73844 0.47173,-3.175 0.0761,-0.43657 0.36592,-2.65112 0.64417,-4.92125 0.27826,-2.27012 0.63194,-5.05619 0.78596,-6.19125 0.58541,-4.31405 0.92046,-6.95778 1.38823,-10.95375 0.53092,-4.53549 0.9289,-7.79495 1.45373,-11.90625 0.18948,-1.48431 0.5552,-4.699 0.81272,-7.14375 0.25752,-2.44475 0.60476,-5.65944 0.77166,-7.14375 0.78798,-7.00819 1.13896,-10.72261 1.90501,-20.16124 0.18425,-2.27013 0.47433,-5.6277 0.64462,-7.46126 0.42432,-4.568804 0.39955,-18.987452 -0.035,-20.351996 -0.18902,-0.593586 -0.46366,-1.365003 -0.6103,-1.714248 -0.14665,-0.349254 -0.3543,-1.063629 -0.46144,-1.587501 -0.23758,-1.161675 -1.33257,-4.137876 -1.94542,-5.287743 -0.24704,-0.4635 -0.44918,-1.00926 -0.44918,-1.212795 0,-0.865863 -2.34611,-3.657411 -6.96886,-8.291961 -3.61925,-3.628494 -5.54551,-5.302566 -7.21528,-6.270624 -1.25284,-0.726345 -2.43156,-1.320624 -2.61937,-1.320624 -0.18782,0 -0.3426,-0.107163 -0.34396,-0.238131 -0.002,-0.130968 -0.32283,-0.399366 -0.71438,-0.596439 -0.39154,-0.197073 -1.31163,-0.661131 -2.04463,-1.031247 -1.55565,-0.785484 -2.95368,-2.471598 -2.95313,-3.56166 2.2e-4,-0.420075 0.32169,-1.134306 0.71438,-1.587168 1.09723,-1.265355 2.1904,-1.487367 4.96189,-1.007694 12.22119,2.115153 20.71903,2.842704 27.23438,2.331702 15.76201,-1.236231 20.33462,-1.242909 23.1237,-0.03375 0.87091,0.377559 1.83532,0.956781 2.14313,1.287171 0.78527,0.842904 0.75068,3.159963 -0.0602,4.030326 -0.60637,0.650853 -3.04421,1.359432 -4.6771,1.359432 -0.45136,0 -1.3373,0.135918 -1.96875,0.302049 -0.63144,0.166122 -2.08809,0.537912 -3.237,0.8262 l -2.08892,0.524151 0.44044,1.475676 c 0.24224,0.81162 0.73259,2.475801 1.08965,3.698172 0.35708,1.222371 0.77742,2.47059 0.93411,2.773818 0.15669,0.303219 0.28489,0.751671 0.28489,0.996552 0,0.244881 0.48616,1.997037 1.08036,3.893679 1.06792,3.408741 2.35814,7.669638 3.25543,10.75095 1.5063,5.172615 1.7852,6.078807 2.00645,6.519168 0.13448,0.267669 0.3475,0.982044 0.47335,1.587501 0.12587,0.605457 0.72405,2.672451 1.32931,4.59333 1.12242,3.562164 1.97127,6.373264 2.78035,9.207494 0.24925,0.87313 0.9754,3.30201 1.61366,5.39751 2.10227,6.90207 3.36791,11.08302 3.98866,13.17624 0.3366,1.13507 0.84499,2.84957 1.12975,3.81001 1.23691,4.17184 1.31875,4.36196 1.50322,3.4925 0.0926,-0.43657 0.24959,-1.72244 0.3488,-2.8575 0.21556,-2.46653 1.05696,-10.88874 1.4432,-14.44626 0.15167,-1.39699 0.504,-4.82599 0.78295,-7.61999 0.52245,-5.23278 0.90219,-8.804262 1.43475,-13.493757 0.16856,-1.484307 0.52274,-4.913307 0.78706,-7.619994 0.26431,-2.706687 0.63749,-6.350004 0.82928,-8.096256 0.52875,-4.814415 -0.0452,-8.899623 -1.605,-11.423394 -0.43719,-0.7074 -2.30073,-2.081124 -5.86185,-4.321116 -2.87149,-1.806201 -5.39949,-3.617712 -5.61777,-4.025574 -0.55381,-1.034802 -0.44031,-2.853891 0.22386,-3.587787 0.60176,-0.664938 2.13906,-1.161882 4.90168,-1.584504 0.96044,-0.146925 2.6035,-0.425916 3.65125,-0.619974 1.04775,-0.194058 3.19087,-0.556965 4.7625,-0.806454 1.57162,-0.249498 3.21469,-0.522837 3.65125,-0.607428 1.37227,-0.265896 6.70788,-1.151109 9.68375,-1.606599 2.97472,-0.45531 5.673204,-0.923256 7.302501,-1.266336 1.911276,-0.402453 3.944349,1.840275 3.385665,3.734793 -0.377145,1.278909 -0.794349,1.692513 -5.141151,5.096673 -6.091465,4.770468 -5.878375,4.33647 -6.811925,13.873959 -0.26493,2.706687 -0.62875,6.20712 -0.8085,7.778745 -0.47579,4.160178 -0.8469,7.623207 -1.41201,13.176252 -0.66741,6.558372 -1.01657,9.554166 -1.42466,12.223741 -1.63052,10.66627 -2.29494,34.65068 -1.27536,46.0375 0.46775,5.22387 1.29534,13.61266 1.87937,19.05 0.18757,1.74626 0.55113,5.46101 0.80793,8.255 0.2568,2.79401 0.53439,5.58007 0.61685,6.19126 0.0824,0.61118 0.31737,2.82574 0.52198,4.92124 0.20461,2.09551 0.58848,4.59581 0.85304,5.55625 0.55075,1.99938 2.19931,4.465 4.04627,6.05165 0.6985,0.60007 1.341439,1.16808 1.428748,1.26225 0.0873,0.0942 1.56861,1.06892 3.291777,2.16609 1.723158,1.09716 3.294783,2.12881 3.492495,2.29256 5.062302,4.19259 7.432956,6.87234 8.786385,9.932 0.761112,1.7206 0.603828,2.65472 -0.649107,3.85512 -1.074996,1.02991 -2.308347,0.99117 -5.079051,-0.15954 -2.323755,-0.96508 -2.648727,-1.08155 -5.238747,-1.87769 -2.205882,-0.67805 -2.728629,-0.79511 -7.62,-1.70641 -11.10407,-2.06879 -22.88225,-2.28804 -30.1625,-0.56148 -2.52042,0.59773 -8.28242,1.93747 -9.525,2.21468 -0.6985,0.15582 -2.11722,0.516 -3.15271,0.80039 -1.0355,0.28437 -2.70173,0.60265 -3.70274,0.70728 -1.6633,0.17384 -1.89079,0.11947 -2.64167,-0.63141 -0.51056,-0.51056 -0.82163,-1.17441 -0.82163,-1.75342 v -0.9318 l -2.77812,0.15768 c -3.298,0.1872 -8.45691,1.04239 -11.98563,1.98686 -1.397,0.37391 -3.46869,0.89872 -4.60375,1.16624 -3.48851,0.8222 -4.24626,1.01028 -5.3975,1.33971 -0.61119,0.1749 -1.89706,0.52782 -2.8575,0.78426 -0.96043,0.25646 -2.74637,0.78722 -3.96875,1.17948 -3.04281,0.97644 -5.20525,1.11485 -6.06123,0.38792 z m 43.85852,-12.32095 c 0.34111,-0.26733 1.40601,-1.06774 2.36645,-1.77869 2.07752,-1.53787 2.18155,-1.62888 4.53295,-3.9661 2.04329,-2.03098 1.94289,-1.75476 2.46656,-6.78667 0.32479,-3.12095 0.30554,-4.11238 -0.13255,-6.82625 -0.49011,-3.03611 -1.55207,-6.64631 -2.1434,-7.28662 -0.15321,-0.1659 -0.27856,-0.49023 -0.27856,-0.72074 0,-0.23052 -0.5715,-1.61087 -1.27,-3.06746 -0.6985,-1.4566 -1.27,-2.79914 -1.27,-2.98343 0,-0.1843 -0.10932,-0.38271 -0.24294,-0.44092 -0.2219,-0.0967 -0.73954,-1.17088 -3.26393,-6.77333 -0.77922,-1.72934 -2.97724,-7.39753 -4.43236,-11.43 -0.91001,-2.52187 -2.16283,-6.79235 -2.70116,-9.2075 -0.27247,-1.22237 -0.62401,-2.72256 -0.7812,-3.33374 -0.62339,-2.42379 -0.97387,-4.05909 -1.29288,-6.03251 -0.18349,-1.13506 -0.4734,-2.921 -0.64424,-3.96874 -0.17084,-1.04776 -0.43424,-2.97657 -0.58533,-4.28625 -0.15108,-1.30969 -0.41073,-2.73043 -0.57699,-3.1572 -0.24621,-0.63201 -0.33924,-0.30807 -0.50148,1.74624 -0.10956,1.38721 -0.34619,3.8438 -0.52584,5.45907 -0.39608,3.56108 -0.79556,7.22242 -1.49828,13.73188 -0.80596,7.46573 -0.99606,40.16726 -0.25841,44.45 0.28574,1.65894 0.65295,3.26434 0.81603,3.56757 0.16308,0.30322 0.29651,0.88186 0.29651,1.28587 0,0.404 0.12344,0.87029 0.27431,1.03618 0.15087,0.1659 0.54378,1.23032 0.87313,2.36538 0.48324,1.66545 0.93544,2.41609 2.34302,3.88938 0.95932,1.00408 1.91182,1.82562 2.11666,1.82562 0.20486,0 0.42009,0.10715 0.4783,0.23812 0.0582,0.13097 0.93131,0.65686 1.94022,1.16865 1.00891,0.51179 1.99081,1.11901 2.182,1.34937 0.45535,0.54867 0.95244,0.52917 1.71341,-0.0672 z m 69.030341,-1.508 c -4.250179,-2.09392 -6.859027,-4.59366 -7.729921,-7.40666 -1.779804,-5.74882 -2.468934,-8.44568 -3.195846,-12.5068 -0.453231,-2.53206 -0.966393,-5.31919 -1.140363,-6.19361 -0.434493,-2.18378 -1.258902,-10.7578 -1.861983,-19.36514 -0.195768,-2.794 -0.497097,-6.04706 -0.669609,-7.22902 -0.891693,-6.10922 0.300141,-12.32578 3.179376,-16.58348 0.472356,-0.6985 1.101213,-1.78649 1.397475,-2.41775 0.296253,-0.63126 0.781551,-1.41707 1.078443,-1.74625 0.296883,-0.32918 0.916929,-1.17882 1.377864,-1.8881 2.579499,-3.96924 9.458083,-9.11328 14.454649,-10.80965 1.647855,-0.55947 6.175143,-0.50826 14.920902,0.16877 5.288184,0.40937 12.344967,2.07689 14.155326,3.34492 0.384228,0.26912 0.809676,0.48931 0.94545,0.48931 0.135765,0 0.246852,-3.45458 0.246852,-7.67683 0,-7.50178 -0.220932,-9.52828 -1.109556,-10.17768 -0.799002,-0.5839 -8.908803,-0.13077 -12.542949,0.70082 -0.785808,0.17982 -2.500308,0.54092 -3.809997,0.80245 -1.309689,0.26152 -2.952747,0.60133 -3.651246,0.75513 -4.546323,1.00103 -6.46326,1.31881 -9.889011,1.63932 -3.468699,0.32453 -4.275342,0.29412 -8.021403,-0.30245 -2.29069,-0.36479 -4.584889,-0.66325 -5.098213,-0.66325 -0.969309,0 -1.629774,0.53425 -6.37821,5.15936 -1.811142,1.76412 -2.384658,2.14313 -3.242943,2.14313 -1.340307,0 -2.404206,-0.75583 -2.970018,-2.11001 -0.412245,-0.98665 -0.381087,-1.27536 0.381042,-3.53038 0.704412,-2.08426 0.81045,-2.86421 0.700776,-5.15461 -0.0711,-1.48431 -0.287469,-2.9845 -0.480879,-3.33375 -0.19341,-0.34925 -0.641952,-1.42082 -0.996759,-2.38125 -1.550106,-4.195998 -1.581264,-5.841297 -0.132192,-6.981129 0.834327,-0.65628 2.881665,-0.87327 3.441177,-0.364716 0.356787,0.324288 4.205439,1.746036 6.016626,2.222622 8.16165,2.147634 18.300088,2.304765 30.797506,0.477324 6.22728,-0.910593 7.117164,-1.065951 9.57582,-1.671804 4.554558,-1.122309 6.025392,-1.328985 11.580048,-1.627209 3.032775,-0.162819 7.256808,-0.391095 9.386739,-0.507276 2.845143,-0.155187 4.133754,-0.103068 4.85685,0.196443 1.287657,0.533367 2.02653,1.961694 1.757268,3.397005 -0.191511,1.020807 -0.516087,1.490724 -2.760552,3.99666 -0.46548,0.5197 -1.373436,1.95114 -2.017692,3.18097 -1.324467,2.52834 -1.296297,2.25975 -2.087109,19.90611 -0.462402,10.31816 -0.102654,21.36016 1.308528,40.16375 0.17037,2.27012 0.309555,5.01475 0.309303,6.09916 -6.3e-4,2.06807 0.771444,7.71844 1.313829,9.61709 0.74358,2.6029 1.799289,4.56111 3.390786,6.28949 0.754227,0.81909 1.753533,1.98932 2.220696,2.60051 0.467154,0.61118 0.934245,1.18268 1.037988,1.27 0.103734,0.0873 0.715302,0.94456 1.359036,1.905 0.643734,0.96044 1.416924,2.08579 1.71819,2.50078 0.742905,1.02333 1.044648,2.22632 0.802503,3.19947 -0.385029,1.54743 -1.731681,2.17956 -5.493483,2.57872 -2.65788,0.28201 -6.076971,0.89851 -8.254998,1.48845 -1.216242,0.32942 -10.82205,4.20296 -12.85875,5.18528 -3.003246,1.44849 -5.290794,1.38303 -6.315399,-0.1807 -0.837936,-1.27885 -0.494397,-3.24199 0.751509,-4.2945 0.103356,-0.0873 0.754578,-0.86368 1.447155,-1.72525 0.692577,-0.86157 1.544985,-1.87485 1.89423,-2.25173 2.778345,-2.99813 3.526263,-4.21515 1.4004,-2.27875 -0.614061,0.55934 -1.680417,1.44042 -2.369691,1.95797 -0.689265,0.51754 -1.408212,1.08904 -1.597671,1.27 -0.348174,0.33256 -0.789462,0.65948 -3.219714,2.3853 -1.926072,1.3678 -5.582889,3.23368 -8.342073,4.25654 -1.309689,0.48553 -2.666997,1.009 -3.016251,1.1633 -0.349245,0.15429 -2.027385,0.64269 -3.729195,1.08532 -2.624778,0.6827 -3.780819,0.80333 -7.620003,0.79513 -4.447071,-0.01 -4.561893,-0.0274 -6.600663,-1.03187 z m 23.113989,-23.76944 c 0.65223,-0.22063 1.321605,-0.51486 1.487502,-0.65383 0.165888,-0.13898 0.501489,-0.25269 0.745767,-0.25269 0.244278,0 0.894357,-0.20084 1.444617,-0.4463 0.550269,-0.24546 1.71486,-0.6892 2.587986,-0.98608 1.860381,-0.63258 2.371518,-0.83167 4.28625,-1.66956 0.785817,-0.34388 1.785942,-0.72506 2.222505,-0.84708 0.436563,-0.12203 1.562598,-0.52206 2.502306,-0.88896 l 1.708551,-0.66711 -0.203661,-2.40683 c -0.112014,-1.32376 -0.349857,-3.76414 -0.528543,-5.42308 -0.60012,-5.57173 -0.899937,-9.33019 -1.241037,-15.5575 -0.186525,-3.40518 -0.480537,-7.32125 -0.653373,-8.70236 -0.172836,-1.38111 -0.314244,-3.24689 -0.314244,-4.14619 0,-0.89929 -0.178596,-1.8788 -0.396873,-2.17668 -0.218286,-0.29788 -1.46844,-0.91154 -2.778129,-1.3637 -1.309689,-0.45215 -3.167064,-1.19573 -4.127499,-1.65239 -1.631538,-0.77576 -2.050587,-0.83095 -6.379002,-0.84011 -2.783241,-0.006 -4.938048,0.13256 -5.397498,0.34683 -3.062061,1.42803 -3.888684,1.93373 -4.837869,2.95962 -1.573452,1.70058 -2.483694,3.54041 -3.778641,7.63748 -1.991052,6.29952 -2.245545,10.65619 -1.07568,18.415 0.276462,1.83357 0.643419,4.26243 0.815454,5.3975 0.172044,1.13507 0.404928,3.20675 0.517527,4.60375 0.163098,2.0235 0.439569,3.01357 1.359594,4.86895 1.175823,2.37122 1.383714,2.64566 3.059865,4.03926 0.899829,0.74816 1.350603,0.93231 2.8575,1.16737 1.00233,0.15635 4.812435,-0.31414 6.116625,-0.75531 z"
       id="path185" />
  </g>
</svg>
